<svg xmlns="http://www.w3.org/2000/svg" viewBox="0 0 422.65 347.26"><defs><style>.cls-1,.cls-2{fill:#603813;}.cls-2{font-size:50px;font-family:CabinSketch-Bold, CabinSketch;font-weight:700;}</style></defs><title>Asset 2</title><g id="Layer_2" data-name="Layer 2"><g id="Object"><path class="cls-1" d="M218.59,124.2c-12.4-10.72-13.19-20.57-3.13-32.81,1.43-1.75,2.91-3.47,4.21-5.31,9.27-13.1,6.1-26.35-8-33.57l-3.79-1.93a6.61,6.61,0,0,0,.3,1.53c4.78,9,3.7,17.37-2.83,25.13a33.62,33.62,0,0,0-2.88,4C190.75,100.34,202.42,120.81,218.59,124.2Z"/><path class="cls-1" d="M194.12,108.05c-7.14-7.68-7.34-14.47-1-22.66.91-1.17,1.84-2.32,2.67-3.55,5.92-8.79,4.39-18-3.86-23.29l-2.22-1.42a5.17,5.17,0,0,0,.14,1.06c2.62,6.33,1.74,12-2.39,17.23a23.39,23.39,0,0,0-1.84,2.71C178.1,91,184.53,105.33,194.12,108.05Z"/><path class="cls-1" d="M224.6,114.94c-2.07-3.49-3-7.07-.92-10.79A41,41,0,0,1,227,99.37c2.48-3.3,3-6.77,1.42-10.23C226,92.53,223.58,96,221,99.28,216.2,105.67,217.25,110.82,224.6,114.94Z"/><path class="cls-1" d="M372.13,184.49l2.22-2c8.49-7.49,8.35-11.15-.73-18.28C355.48,150,355.48,150,368.44,130.8c6-8.91,4.5-14.76-5.62-17.79-19.39-5.8-24.49-3.63-15.42-31,.18-.55.5-1.05.65-1.61,2.05-7.35-.17-11-7.94-12-4.86-.6-9.83-.23-14.74-.48-10.2-.53-12.6-3.07-12.79-13.3,0-2.32,0-4.63,0-7-.07-15.42-2.37-17.26-17.31-13.85-20.39,4.64-20.39,4.64-27.9-15-4.82-12.64-7.19-13.42-18.52-6.13-18.37,11.81-18.37,11.81-32.34-5.24-8.19-10-11.83-10.05-19.81.28-14.23,18.42-13.53,17.68-31.9,5.11-11.68-8-14.82-6.48-19.28,7.1-5.13,15.6-7.09,22.54-25.22,14.33-1.27-.58-2.86-.42-4.26-.74-12.15-2.8-15-1-14.94,11.09.12,23.88-2.65,23.63-24.08,23.56-11.42,0-14.06,3.87-10.95,14.57C72.49,105,72.49,105,50.59,112.86c-10.12,3.63-12.08,8.89-5.93,17.57,14.17,20,14.45,19.65-5.47,34.1-8.59,6.23-8.6,11.14-.52,17.8.92.76,1.88,1.46,2.85,2.15H0v6.38H422.65v-6.38ZM69.24,173.32C69.47,97.94,131.11,36.5,206.57,36.47c75.76,0,137.82,62.17,137.42,138,0,3.37-.17,6.71-.44,10H292.21c15.44-10.45,22.9-25.48,17-34.69-3.3-5.14-10.36-7.4-19.16-6.23.35-2.21.63-4.4.82-6.56a9.48,9.48,0,0,0-2.49-7.32,9.94,9.94,0,0,0-7.32-3.23H138.31A9.94,9.94,0,0,0,131,129.7,9.48,9.48,0,0,0,128.5,137a93.8,93.8,0,0,0,17.76,47.47H69.68C69.39,180.8,69.23,177.08,69.24,173.32Zm204.67,9.87a93.21,93.21,0,0,0,14-29.85c6-1.4,10.79-.63,12.52,2.07,1.42,2.21.84,5.78-1.61,9.77-2.7,4.41-7.27,8.82-12.87,12.42A46,46,0,0,1,273.9,183.19ZM57.76,170.54c1.92-82.35,69-146.28,150.75-145.5S358.58,95.1,355.19,180.77c0,1.24-.13,2.48-.21,3.72h-6.34c.27-3.51.43-7.06.44-10.63.19-78.08-63.76-142.19-141.81-142.44-78.89-.25-143,63.42-143.09,142.11,0,3.69.15,7.34.42,11H58.1C57.77,179.89,57.65,175.24,57.76,170.54Z"/><path class="cls-1" d="M0,260.11H67.1c-4.77,18.23-3.33,18.41,18.51,19,12.16.33,14.72,2.8,15.3,14.77,1.15,23.79,1.15,23.79,23.78,17.18,10.31-3,14.09-1.3,18,8.6,1.5,3.74,2.31,7.74,3.72,11.52,3,8,7.25,9.7,14.73,5.49,4.48-2.52,8.43-6,12.81-8.67,5.49-3.39,10.69-4.06,15.07,2.15A159.38,159.38,0,0,0,199.2,343c4.93,5.66,9.47,5.67,14.43,0,3.23-3.67,6-7.75,9.11-11.51,6-7.25,10-7.77,17.66-2.6,4,2.73,8.07,5.5,12.22,8.07,6.48,4,10.82,2,13.3-5,1.55-4.36,3.67-8.55,4.8-13,2-7.81,6.93-10.3,14.22-8.61,4.47,1,8.73,3,13.15,4.29,9.12,2.72,13.94-.66,14.39-10.14.22-4.62.18-9.27.1-13.9-.13-7.08,3.67-10.6,10.31-11.36,2.86-.33,5.78-.06,10.68-.06,14.4,1.05,18.73-3.51,12.25-19.14h76.84v-6.38H0Zm313,0c-25.47,31.22-64.21,51.15-106.88,50.5a137,137,0,0,1-106-50.5ZM205.85,322a147.8,147.8,0,0,1-120.4-61.93h8.13A142.35,142.35,0,0,0,206.7,315.73c45.65.44,86.66-21.58,112.82-55.63h7.57C299.62,297.78,254.93,322.83,205.85,322Z"/><text class="cls-2" transform="translate(22.03 241.22)">NGOPI SARAOSNA</text></g></g></svg>